<svg width="16" height="14" viewBox="0 0 16 14" fill="none" xmlns="http://www.w3.org/2000/svg">
<path d="M11.8065 6.23869C11.2294 6.15457 10.6879 5.91789 10.2423 5.55501C9.7967 5.19213 9.46448 4.7173 9.28266 4.18341C9.10084 3.64951 9.07656 3.07751 9.21251 2.53111C9.34847 1.98471 9.63932 1.48536 10.0527 1.08869C11.2848 -0.0973588 13.6554 -0.455671 14.8875 0.73038C14.9688 0.808614 15.0439 0.892549 15.1123 0.981492L11.8065 6.23869Z" fill="url(#paint0_linear_1_29)"/>
<path d="M14.5152 5.38398C14.1653 5.7215 13.7377 5.9748 13.267 6.1233C12.7963 6.27181 12.2959 6.31132 11.8064 6.23865C11.6112 5.68424 11.5443 5.09548 11.6104 4.51358C11.6764 3.93168 11.8737 3.3707 12.1886 2.86991C12.5034 2.36912 12.9282 1.94063 13.4331 1.61442C13.938 1.28822 14.5109 1.07218 15.1116 0.981445C16.0686 2.21547 15.6654 4.27723 14.5152 5.38398Z" fill="url(#paint1_linear_1_29)"/>
<path d="M3.83973 6.23869C4.41682 6.15457 4.95833 5.91789 5.40394 5.55501C5.84955 5.19213 6.18176 4.7173 6.36358 4.18341C6.5454 3.64951 6.56968 3.07751 6.43373 2.53111C6.29778 1.98471 6.00692 1.48536 5.59356 1.08869C4.36145 -0.0973588 1.9908 -0.455671 0.759203 0.73038C0.677629 0.808483 0.602324 0.892428 0.533936 0.981492L3.83973 6.23869Z" fill="url(#paint2_linear_1_29)"/>
<path d="M1.13143 5.38398C1.48119 5.72149 1.90874 5.97479 2.37934 6.1233C2.84993 6.2718 3.35029 6.31132 3.83973 6.23865C3.98665 5.82267 4.06139 5.38623 4.06093 4.94686C4.06069 3.98971 3.70514 3.06415 3.05842 2.33713C2.4117 1.6101 1.51637 1.12947 0.53394 0.981934C-0.420016 2.21547 -0.0193138 4.27723 1.13143 5.38398Z" fill="url(#paint3_linear_1_29)"/>
<path d="M2.36934 2.65742C2.27289 2.56501 2.157 2.49357 2.02946 2.4479C1.90193 2.40223 1.7657 2.38341 1.62997 2.39268C1.49424 2.40196 1.36214 2.43913 1.24259 2.50168C1.12303 2.56423 1.01879 2.65072 0.936876 2.75532C0.66017 3.10533 0.412444 3.47571 0.195984 3.86305C0.378186 4.43414 0.698696 4.9554 1.13113 5.38392C1.37921 5.62321 1.66709 5.82091 1.98287 5.96887L2.61698 3.52628C2.65704 3.37319 2.65529 3.21273 2.61189 3.06049C2.5685 2.90825 2.48494 2.76939 2.36934 2.65742Z" fill="#FD748D"/>
<path d="M0.793833 8.651C0.754607 8.36473 0.735072 8.07628 0.735355 7.78753C0.751189 5.988 1.50491 4.26737 2.83241 3.00027C4.15992 1.73317 5.95369 1.02222 7.82316 1.02222C9.69263 1.02222 11.4864 1.73317 12.8139 3.00027C14.1414 4.26737 14.8951 5.988 14.911 7.78753C14.9115 8.07645 14.8919 8.36508 14.8525 8.65149L0.793833 8.651Z" fill="url(#paint4_linear_1_29)"/>
<path d="M14.853 8.65136C14.4035 11.8708 11.4272 13.1229 7.8234 13.1229C4.21962 13.1229 1.24283 11.8708 0.793823 8.65087C2.62444 6.96602 4.45506 7.55978 6.38738 4.0447C6.52531 3.79364 6.73238 3.58398 6.98589 3.4387C7.17536 3.32966 7.38585 3.25875 7.6046 3.23026C7.82336 3.20176 8.04585 3.21628 8.25862 3.27292C8.47138 3.32957 8.67 3.42717 8.84246 3.55983C9.01491 3.69248 9.15762 3.85743 9.26196 4.0447C11.1907 7.55978 13.0249 6.96602 14.8555 8.65136H14.853Z" fill="url(#paint5_linear_1_29)"/>
<path d="M3.27476 7.89799C3.70163 7.89799 4.04769 7.63018 4.04769 7.29982C4.04769 6.96947 3.70163 6.70166 3.27476 6.70166C2.84788 6.70166 2.50183 6.96947 2.50183 7.29982C2.50183 7.63018 2.84788 7.89799 3.27476 7.89799Z" fill="#FFAECF"/>
<path d="M12.3713 7.89799C12.7982 7.89799 13.1442 7.63018 13.1442 7.29982C13.1442 6.96947 12.7982 6.70166 12.3713 6.70166C11.9444 6.70166 11.5984 6.96947 11.5984 7.29982C11.5984 7.63018 11.9444 7.89799 12.3713 7.89799Z" fill="#FFAECF"/>
<path d="M4.59983 7.29981C5.44629 7.29981 6.13247 6.63928 6.13247 5.82447C6.13247 5.00966 5.44629 4.34912 4.59983 4.34912C3.75338 4.34912 3.0672 5.00966 3.0672 5.82447C3.0672 6.63928 3.75338 7.29981 4.59983 7.29981Z" fill="white"/>
<path d="M11.0462 7.29981C11.8926 7.29981 12.5788 6.63928 12.5788 5.82447C12.5788 5.00966 11.8926 4.34912 11.0462 4.34912C10.1997 4.34912 9.51355 5.00966 9.51355 5.82447C9.51355 6.63928 10.1997 7.29981 11.0462 7.29981Z" fill="white"/>
<path d="M4.59988 6.70408C5.10455 6.70408 5.51366 6.31025 5.51366 5.82445C5.51366 5.33865 5.10455 4.94482 4.59988 4.94482C4.09521 4.94482 3.6861 5.33865 3.6861 5.82445C3.6861 6.31025 4.09521 6.70408 4.59988 6.70408Z" fill="#383842"/>
<path d="M11.0463 6.70408C11.551 6.70408 11.9601 6.31025 11.9601 5.82445C11.9601 5.33865 11.551 4.94482 11.0463 4.94482C10.5416 4.94482 10.1325 5.33865 10.1325 5.82445C10.1325 6.31025 10.5416 6.70408 11.0463 6.70408Z" fill="#383842"/>
<path d="M8.33192 7.77046C8.15038 7.76906 7.97338 7.71573 7.82341 7.61725C7.67358 7.716 7.49649 7.76936 7.31491 7.77046C7.18252 7.76815 7.05206 7.73942 6.9318 7.68609C6.81153 7.63275 6.70408 7.55597 6.61622 7.46061C6.57165 7.41182 6.5486 7.34823 6.55196 7.28334C6.55531 7.21846 6.58481 7.15738 6.63419 7.1131C6.68358 7.06881 6.74895 7.0448 6.81642 7.04617C6.8839 7.04753 6.94816 7.07416 6.99557 7.12041C7.03324 7.16735 7.0816 7.20535 7.13691 7.2315C7.19222 7.25764 7.25303 7.27124 7.31465 7.27124C7.37628 7.27124 7.43708 7.25764 7.49239 7.2315C7.54771 7.20535 7.59606 7.16735 7.63374 7.12041C7.658 7.09536 7.68737 7.07538 7.72 7.06172C7.75263 7.04806 7.78783 7.04102 7.82341 7.04102C7.85899 7.04102 7.89419 7.04806 7.92682 7.06172C7.95946 7.07538 7.98882 7.09536 8.01308 7.12041C8.05076 7.16735 8.09911 7.20535 8.15443 7.2315C8.20974 7.25764 8.27055 7.27124 8.33217 7.27124C8.39379 7.27124 8.4546 7.25764 8.50991 7.2315C8.56522 7.20535 8.61358 7.16735 8.65126 7.12041C8.69866 7.07416 8.76293 7.04753 8.8304 7.04617C8.89788 7.0448 8.96325 7.06881 9.01263 7.1131C9.06201 7.15738 9.09151 7.21846 9.09487 7.28334C9.09822 7.34823 9.07517 7.41182 9.0306 7.46061C8.94284 7.55596 8.83548 7.63274 8.7153 7.68607C8.59511 7.73941 8.46474 7.76814 8.33242 7.77046H8.33192Z" fill="#383842"/>
<defs>
<linearGradient id="paint0_linear_1_29" x1="980.617" y1="1488.3" x2="1671.34" y2="1488.3" gradientUnits="userSpaceOnUse">
<stop stop-color="#4F4C5F"/>
<stop offset="1" stop-color="#77718A"/>
</linearGradient>
<linearGradient id="paint1_linear_1_29" x1="11.5863" y1="3.62681" x2="15.647" y2="3.62681" gradientUnits="userSpaceOnUse">
<stop stop-color="#FD869C"/>
<stop offset="1" stop-color="#FDB0BF"/>
</linearGradient>
<linearGradient id="paint2_linear_1_29" x1="-19.9998" y1="1488.3" x2="670.724" y2="1488.3" gradientUnits="userSpaceOnUse">
<stop stop-color="#77718A"/>
<stop offset="1" stop-color="#4F4C5F"/>
</linearGradient>
<linearGradient id="paint3_linear_1_29" x1="-0.000224591" y1="3.62681" x2="4.061" y2="3.62681" gradientUnits="userSpaceOnUse">
<stop stop-color="#FDB0BF"/>
<stop offset="1" stop-color="#FD869C"/>
</linearGradient>
<linearGradient id="paint4_linear_1_29" x1="7.82352" y1="8.65125" x2="7.82352" y2="0.96422" gradientUnits="userSpaceOnUse">
<stop stop-color="#FDB58A"/>
<stop offset="1" stop-color="#3C2313"/>
</linearGradient>
<linearGradient id="paint5_linear_1_29" x1="7.82351" y1="13.1232" x2="7.82351" y2="3.21538" gradientUnits="userSpaceOnUse">
<stop stop-color="#FFF5E3"/>
<stop offset="1" stop-color="#F0A83E"/>
</linearGradient>
</defs>
</svg>
