<svg width="19" height="15" viewBox="0 0 19 15" fill="none" xmlns="http://www.w3.org/2000/svg">
<path d="M14.3048 0.407018C15.1942 -0.164715 16.3623 -0.124087 17.2384 0.465757C18.0439 0.995981 18.6382 1.77413 18.9236 2.67241C19.0314 3.0138 19.0249 3.37921 18.9049 3.71681C18.7849 4.05442 18.5575 4.34708 18.255 4.5533C17.9524 4.75951 17.5902 4.86881 17.2195 4.86569C16.8488 4.86257 16.4886 4.7472 16.1899 4.53593L13.2634 2.46437C13.2634 1.39238 13.7414 0.769246 14.3048 0.408486V0.407018Z" fill="url(#paint0_linear_1_15)"/>
<path d="M5.35516 0.407018C4.46578 -0.164715 3.29774 -0.124087 2.42261 0.465757C1.61709 0.995981 1.02283 1.77413 0.737419 2.67241C0.629577 3.0138 0.636128 3.37921 0.756144 3.71681C0.87616 4.05442 1.10355 4.34708 1.40606 4.5533C1.70857 4.75951 2.07085 4.86881 2.44152 4.86569C2.81218 4.86257 3.17242 4.7472 3.47114 4.53593L6.39759 2.46437C6.39759 1.39238 5.9196 0.769246 5.35617 0.408486L5.35516 0.407018Z" fill="url(#paint1_linear_1_15)"/>
<path d="M4.81253 2.24308C4.64797 2.08492 4.42494 1.99609 4.1924 1.99609C3.95987 1.99609 3.73684 2.08492 3.57228 2.24308C2.81771 2.96363 2.20278 3.80804 1.75641 4.73658C2.03635 4.8474 2.3412 4.88706 2.64166 4.85174C2.94212 4.81642 3.22809 4.70732 3.47211 4.5349L4.94677 3.27053C5.04625 3.10928 5.08706 2.92071 5.06275 2.73464C5.03843 2.54856 4.95039 2.37559 4.81253 2.24308Z" fill="#5C586F"/>
<path d="M17.124 9.70751C16.6928 12.7424 14.6679 14.3763 9.83001 14.3763C4.299 14.3763 2.4455 12.2421 2.4455 8.31636C2.44592 7.19938 2.71963 6.0982 3.24445 5.102C3.76928 4.1058 4.53047 3.2426 5.46638 2.58231C6.40228 1.92202 7.48659 1.4832 8.63147 1.30139C9.77635 1.11958 10.9496 1.1999 12.0562 1.53584L17.124 9.70751Z" fill="url(#paint2_linear_1_15)"/>
<path d="M17.215 8.31836C17.2172 8.78352 17.1868 9.24829 17.1239 9.70951C16.4189 9.8975 15.6783 9.92615 14.9598 9.79322C14.2414 9.66029 13.5646 9.36938 12.9822 8.94317C12.3998 8.51697 11.9276 7.967 11.6023 7.33617C11.2771 6.70535 11.1077 6.01072 11.1073 5.30648C11.1073 3.34849 11.3148 2.19524 12.0536 1.53735C13.5509 1.99287 14.8585 2.89581 15.7866 4.11514C16.7147 5.33447 17.215 6.80676 17.215 8.31836Z" fill="url(#paint3_linear_1_15)"/>
<path d="M4.84212 8.27181C5.31028 8.27181 5.6898 7.97815 5.6898 7.61589C5.6898 7.25363 5.31028 6.95996 4.84212 6.95996C4.37396 6.95996 3.99445 7.25363 3.99445 7.61589C3.99445 7.97815 4.37396 8.27181 4.84212 8.27181Z" fill="#FFAECF"/>
<path d="M14.818 8.27181C15.2862 8.27181 15.6657 7.97815 15.6657 7.61589C15.6657 7.25363 15.2862 6.95996 14.818 6.95996C14.3499 6.95996 13.9703 7.25363 13.9703 7.61589C13.9703 7.97815 14.3499 8.27181 14.818 8.27181Z" fill="#FFAECF"/>
<path d="M7.95527 6.25762C8.10403 5.37542 7.48168 4.54416 6.56522 4.40095C5.64876 4.25774 4.78523 4.85682 4.63647 5.73902C4.48772 6.62123 5.11006 7.45249 6.02652 7.5957C6.94298 7.7389 7.80651 7.13983 7.95527 6.25762Z" fill="white"/>
<path d="M13.3647 7.61595C14.2932 7.61595 15.0458 6.89142 15.0458 5.99767C15.0458 5.10392 14.2932 4.37939 13.3647 4.37939C12.4363 4.37939 11.6836 5.10392 11.6836 5.99767C11.6836 6.89142 12.4363 7.61595 13.3647 7.61595Z" fill="white"/>
<path d="M7.30593 6.11344C7.39445 5.58619 7.02219 5.0897 6.47447 5.00448C5.92674 4.91927 5.41097 5.27761 5.32245 5.80486C5.23393 6.3321 5.60619 6.8286 6.15391 6.91381C6.70163 6.99903 7.21741 6.64069 7.30593 6.11344Z" fill="#383842"/>
<path d="M13.3647 6.96182C13.9179 6.96182 14.3664 6.53009 14.3664 5.99751C14.3664 5.46494 13.9179 5.0332 13.3647 5.0332C12.8114 5.0332 12.3629 5.46494 12.3629 5.99751C12.3629 6.53009 12.8114 6.96182 13.3647 6.96182Z" fill="#383842"/>
<path d="M10.3878 8.10766C10.1873 8.1064 9.99206 8.04591 9.82844 7.93438C9.66482 8.04591 9.46957 8.1064 9.26908 8.10766C9.12789 8.10469 8.98886 8.07363 8.86074 8.01643C8.73262 7.95923 8.61819 7.87713 8.52463 7.77529C8.50142 7.75128 8.48336 7.72311 8.47147 7.69238C8.45957 7.66165 8.45408 7.62896 8.45531 7.59619C8.45654 7.56342 8.46446 7.5312 8.47862 7.50137C8.49278 7.47155 8.51291 7.4447 8.53785 7.42236C8.56279 7.40002 8.59206 7.38263 8.62398 7.37118C8.65591 7.35973 8.68986 7.35445 8.72391 7.35563C8.75795 7.35681 8.79142 7.36444 8.8224 7.37807C8.85339 7.3917 8.88128 7.41108 8.90448 7.43509C8.94808 7.48907 9.00391 7.53276 9.06771 7.56281C9.13152 7.59286 9.20161 7.60848 9.27264 7.60848C9.34367 7.60848 9.41377 7.59286 9.47757 7.56281C9.54138 7.53276 9.59721 7.48907 9.6408 7.43509C9.66507 7.41004 9.69443 7.39006 9.72706 7.3764C9.75969 7.36274 9.79489 7.3557 9.83047 7.3557C9.86605 7.3557 9.90125 7.36274 9.93389 7.3764C9.96652 7.39006 9.99588 7.41004 10.0201 7.43509C10.0637 7.48907 10.1196 7.53276 10.1834 7.56281C10.2472 7.59286 10.3173 7.60848 10.3883 7.60848C10.4593 7.60848 10.5294 7.59286 10.5932 7.56281C10.657 7.53276 10.7129 7.48907 10.7565 7.43509C10.7797 7.41108 10.8076 7.3917 10.8385 7.37807C10.8695 7.36444 10.903 7.35681 10.937 7.35563C10.9711 7.35445 11.005 7.35973 11.037 7.37118C11.0689 7.38263 11.0982 7.40002 11.1231 7.42236C11.148 7.4447 11.1682 7.47155 11.1823 7.50137C11.1965 7.5312 11.2044 7.56342 11.2056 7.59619C11.2069 7.62896 11.2014 7.66165 11.1895 7.69238C11.1776 7.72311 11.1595 7.75128 11.1363 7.77529C11.0424 7.87755 10.9273 7.9599 10.7986 8.01711C10.6698 8.07433 10.5301 8.10516 10.3883 8.10766H10.3878Z" fill="#383842"/>
<path d="M10.751 6.30304C10.751 6.58891 10.3386 6.81995 9.83008 6.81995C9.32158 6.81995 8.90918 6.58891 8.90918 6.30304C8.90918 6.01717 9.32158 5.98389 9.83008 5.98389C10.3386 5.98389 10.751 6.01766 10.751 6.30304Z" fill="#383842"/>
<defs>
<linearGradient id="paint0_linear_1_15" x1="13.2646" y1="2.43144" x2="19.0017" y2="2.43144" gradientUnits="userSpaceOnUse">
<stop stop-color="#4F4C5F"/>
<stop offset="1" stop-color="#77718A"/>
</linearGradient>
<linearGradient id="paint1_linear_1_15" x1="0.660278" y1="2.43144" x2="6.39735" y2="2.43144" gradientUnits="userSpaceOnUse">
<stop stop-color="#77718A"/>
<stop offset="1" stop-color="#4F4C5F"/>
</linearGradient>
<linearGradient id="paint2_linear_1_15" x1="9.78586" y1="14.3759" x2="9.78586" y2="1.20574" gradientUnits="userSpaceOnUse">
<stop stop-color="#F0A83E"/>
<stop offset="1" stop-color="#FFF5E3"/>
</linearGradient>
<linearGradient id="paint3_linear_1_15" x1="11.1084" y1="5.70336" x2="17.2163" y2="5.70336" gradientUnits="userSpaceOnUse">
<stop stop-color="#EFC4AB"/>
<stop offset="1" stop-color="#3C2313"/>
</linearGradient>
</defs>
</svg>
